<svg width="459" height="112" viewBox="0 0 459 112" fill="none" xmlns="http://www.w3.org/2000/svg">
    <g clipPath="url(#clip0_1_2)">
        <path d="M347 -3H21V112H347V-3Z" fill="black"/>
        <path d="M72.8674 107.123L71.3128 103.847L69.2401 99.6977L64.9909 94.5652L63.3324 90.0885L60.1765 90.2247L59.4974 109.961L56.181 109.798V100.953L55.974 96.9676L54.7302 92.7091L52.2944 94.8384L50.7914 96.4763L48.3555 99.5883L47.0602 101.881L48.108 103.506L52.9679 107.56L53.6936 110.398H50.8436L48.2523 108.379L45.5055 106.686L42.811 104.502L42.1892 103.137L42.5001 101.117L44.4173 97.7315L47.8792 92.1535L46.4906 93.2542L44.2102 96.2568L41.5157 99.4782C41.5157 99.4782 39.8304 100.869 39.7017 101.852C39.573 102.836 40.8938 104.501 40.8938 104.501L47.6566 111.57H42.0598L39.4685 108.841L37.0072 105.976L35.9705 103.574L35.9189 102.099V99.2607L35.5042 101.772V103.71L35.4003 104.885L35.4519 108.051L33.3793 109.634L29.2333 110.399L25.2951 109.634L22.8076 107.888C22.8076 107.888 21.1491 106.031 21.0459 105.595C20.9427 105.158 21.0459 102.1 21.0459 102.1C21.7735 100.44 22.5346 98.8145 23.3654 97.2094C24.0246 95.9364 24.4848 94.3549 24.5675 92.8998C24.6402 91.6117 24.4332 90.3197 24.5768 89.0134C24.9437 85.676 27.0444 82.8254 29.0231 80.3292C30.4111 78.576 30.9913 76.3393 32.4185 74.6182C34.3419 72.3003 36.6117 69.7661 39.1346 68.1682C40.535 67.2818 41.6892 65.9761 43.278 65.6295C46.837 64.8531 50.1894 64.0296 53.7465 63.248C56.1157 62.7278 58.7338 63.1431 61.1049 63.4314C63.2317 63.6895 63.5862 63.4753 65.6358 63.875C66.1209 64.0427 67.6693 63.7177 67.4268 63.7177C71.8333 63.5127 74.2399 63.7846 77.9785 64.1075C79.5357 64.2412 81.0642 64.5085 82.5703 64.9475C83.0989 65.1008 83.9589 65.6288 84.4981 65.6288H85.8239L88.5184 66.1752L90.7982 67.0485L93.0008 68.1669C93.0008 68.1669 95.2426 69.0206 97.5354 69.5598C98.939 69.89 99.498 70.2542 99.3233 70.4324C99.1765 70.5831 98.7791 70.6513 98.7791 70.6513L97.8289 70.7345L96.2917 71.3058L93.9081 72.5067L93.1308 73.1618L92.5605 74.1446C92.5605 74.1446 92.7937 76.11 92.5605 77.2015C92.4511 77.7125 90.7988 79.3852 90.7988 79.3852L89.9686 81.2982L90.1502 84.0826L90.2795 87.4678V88.4506L89.4506 88.9963L87.3779 88.7782L86.2381 87.9048L85.6162 87.2497L84.3725 85.83L83.0249 84.629L82.196 83.3187H80.9523L79.6047 84.3015C79.6047 84.3015 78.361 84.8472 75.2517 85.9394C72.1423 87.0315 70.5361 88.6412 70.5361 88.6412L71.0025 92.0526C71.0025 92.0526 71.0025 94.0194 73.0751 97.841C75.1478 101.662 76.3915 106.795 76.3915 106.795L72.8674 107.123Z" fill="white" stroke="white" stroke-miterlimit="10"/>
        <path d="M142.246 29.8533C142.102 30.1193 141.958 30.3872 141.815 30.6578C140.683 32.7949 139.558 34.9897 138.219 36.9932C137.119 38.6376 136.185 40.2998 135.267 42.0622L133.401 45.4474L130.707 48.9413C130.707 48.9413 128.738 51.4525 128.323 51.8895C127.908 52.3265 127.287 53.1998 127.079 53.6368C126.872 54.0738 125.732 55.3835 125.732 55.3835L119.617 49.1595L116.197 45.7743L111.844 42.6079L105.832 38.8951L104.278 37.9124L105.107 39.6597L102.723 39.1139L100.132 37.0391L97.0224 37.476L97.7482 38.24L93.7061 38.8951L90.5968 40.533L87.7984 43.1536L87.0727 45.1191V47.194L85 49.5965L87.5919 49.2689L90.1826 48.9413L88.6279 49.8146H90.1826L92.0482 50.688L93.7067 50.9061L94.9504 51.5613L96.5051 52.107L99.4079 52.2158L101.584 53.8537L105.937 57.3476L109.047 60.951L112.571 63.4622H118.582L121.277 61.3873L120.448 63.4622L118.582 67.1743L118.375 71.1053L118.997 75.0362L118.893 78.312L118.789 82.243L118.374 84.3172C118.374 84.3172 117.959 85.9551 117.856 86.3921C117.753 86.8291 117.752 88.03 117.752 88.03L117.648 88.904L116.404 91.197L115.678 92.2892L114.745 94.0358L115.782 103.536L118.27 107.685H123.659L124.721 107.056L126.742 106.975L124.099 104.6L121.883 103.822L121.767 95.4274L123.322 90.4318L126.664 85.6819L128.737 81.8053L131.018 78.202L133.609 74.1616L140.346 65.4533L143.25 60.6444C144.347 61.1593 144.537 61.3716 145.194 60.1694C145.779 59.0976 146.428 58.0552 147.122 57.0594C148.526 55.048 150.198 53.2883 152.219 51.9649C153.713 50.9867 154.747 50.1632 155.467 48.4152C155.972 47.1835 156.683 46.0003 157.343 44.8551C157.739 44.1672 158.104 43.4118 158.771 42.9702C160.292 41.9613 161.281 42.6 162.215 43.9123L162.837 45.4408L164.366 47.762L166.05 50.2464L169.673 53.9919L171.828 53.494V51.8561L171.004 50.669L171.647 50.1363C171.647 49.6515 171.81 48.8175 171.613 48.3831C171.244 47.5707 170.1 47.2353 169.702 46.3285C169.336 45.4965 169.242 44.4626 168.99 43.5769C168.761 42.7691 168.608 41.6415 168.104 40.9995C167.544 40.2854 166.474 39.6348 165.739 39.11C164.909 38.5171 164.009 38.0159 163.149 37.4721C164.221 34.8561 169.353 36.0917 170.356 38.1233C170.707 38.8355 170.702 39.5608 171.272 40.1707C171.816 40.7525 172.605 41.0768 173.32 41.35C174.092 41.6435 174.968 41.7496 175.689 42.165C175.451 42.0274 175.496 38.1306 175.44 37.6136C175.312 36.4697 175.133 35.3337 174.965 34.195L175.69 32.4477L177.763 29.8271V27.4279L179.007 24.5898H184.293L178.696 21.8597C178.696 21.8597 174.451 20.2244 174.447 20.2218C173.203 19.7436 171.59 19.6564 170.284 19.4599C168.377 19.1729 166.456 19.0314 164.53 19.0294C162.754 19.0281 160.971 19.0687 159.195 19.036C157.541 19.0052 156.147 18.8427 154.597 19.5942C152.319 20.6994 150.014 21.5859 147.897 23.0292C147.122 23.5579 145.953 24.025 145.298 24.7031C144.615 25.4094 144.151 26.6849 143.611 27.5255C143.122 28.2901 142.679 29.0632 142.249 29.8539L142.246 29.8533Z" fill="white" stroke="white" stroke-miterlimit="10"/>
        <path d="M259.154 2.18364C252.21 1.56202e-07 247.96 0 247.96 0L242.468 1.09215L236.767 2.18561L233.346 3.93291L230.031 6.33538C230.031 6.33538 227.439 8.51902 227.128 8.95601C226.818 9.393 225.782 10.8121 225.782 10.8121L224.02 13.2145L221.326 14.9618C221.326 14.9618 218.009 17.0354 217.284 17.4724C216.558 17.9094 208.889 24.461 208.889 24.461L197.384 33.3056L195 37.1265V40.4023L195.622 42.1954L195.415 43.4599L198.007 42.1954L197.903 42.9135V45.4247L199.562 44.6595L200.702 44.0043C200.702 44.0043 201.531 43.8956 201.531 44.4413V46.2967C201.531 46.2967 202.568 46.5149 202.879 46.2967C203.19 46.0786 205.263 46.3937 205.263 46.3937L207.129 44.8776L210.446 42.1941L216.664 38.4348L221.017 33.8487L225.06 31.3375L227.081 32.1014V33.8487L225.267 35.0496L226.615 35.2678L225.267 36.7956H226.511L227.082 37.1232V40.0714L226.408 43.0196L224.231 45.7497C224.231 45.7497 224.439 49.1342 224.75 49.4618C225.061 49.7894 226.408 51.7548 226.615 52.0824C226.823 52.41 228.584 55.904 228.584 55.904C228.584 55.904 228.895 60.1625 228.999 60.4901C229.103 60.8176 232.213 63.1107 232.213 63.1107H233.975V60.0524L233.871 59.2885L237.292 61.4721L237.395 59.3966L236.878 55.3569L233.147 48.2589L232.628 44.9831L241.645 34.3912L243.615 27.8396V23.2535L245.274 22.8165L247.864 23.1441L255.224 28.2759L260.198 32.8621L261.338 39.6325L263.101 42.1908L265.277 43.7816L267.868 44.3273L268.698 42.7995L269.839 43.6728L271.704 44.0004L272.74 43.5647L273.362 44.5474L275.331 44.875L275.747 41.3804L278.13 37.5595L281.862 34.7207L282.691 32.6459L285.386 33.738L285.904 31.5544H290.154L285.387 26.2037L284.765 25.4391L281.345 23.4736L278.235 15.7212L273.364 9.16959L266.523 4.6929L261.548 2.18168H259.154V2.18364Z" fill="white" stroke="white" stroke-miterlimit="10"/>
        <path d="M301.658 107L312.644 105.483L321.972 102.231L323.009 99.1958C323.009 99.1958 322.18 89.2233 323.009 88.1398C323.838 87.0563 323.009 79.2521 323.009 79.2521L325.911 74.4824L328.813 67.112L331.3 62.3429L336.897 60.3919H342.701L346.018 59.4619L343.945 55.1891L341.043 52.3698L338.97 51.0691H330.056L323.838 53.6705L320.936 56.7057L318.241 56.9223L315.547 52.3698V51.0691L313.059 48.0339H310.572L310.365 49.9849L316.375 62.5582L312.644 67.5438L309.328 65.8113L311.608 59.4625L312.23 57.5733L308.084 50.4194L306.633 46.3007L303.109 45V48.9021L308.913 58.6574L300 70.7975L307.255 83.3708" fill="white"/>
        <path d="M301.658 107L312.644 105.483L321.972 102.231L323.009 99.1958C323.009 99.1958 322.18 89.2233 323.009 88.1398C323.838 87.0563 323.009 79.2521 323.009 79.2521L325.911 74.4824L328.813 67.112L331.3 62.3429L336.897 60.3919H342.701L346.018 59.4619L343.945 55.1891L341.043 52.3698L338.97 51.0691H330.056L323.838 53.6705L320.936 56.7057L318.241 56.9223L315.547 52.3698V51.0691L313.059 48.0339H310.572L310.365 49.9849L316.375 62.5582L312.644 67.5438L309.328 65.8113L311.608 59.4625L312.23 57.5733L308.084 50.4194L306.633 46.3007L303.109 45V48.9021L308.913 58.6574L300 70.7975L307.255 83.3708" stroke="white" stroke-miterlimit="10"/>
    </g>
    <defs>
    <clipPath id="clip0_1_2">
        <rect width="459" height="112" fill="white"/>
    </clipPath>
    </defs>
</svg>
