<?xml version="1.0" encoding="UTF-8" standalone="no"?>
<svg
   xmlns:dc="http://purl.org/dc/elements/1.1/"
   xmlns:cc="http://creativecommons.org/ns#"
   xmlns:rdf="http://www.w3.org/1999/02/22-rdf-syntax-ns#"
   xmlns:svg="http://www.w3.org/2000/svg"
   xmlns="http://www.w3.org/2000/svg"
   xmlns:sodipodi="http://sodipodi.sourceforge.net/DTD/sodipodi-0.dtd"
   xmlns:inkscape="http://www.inkscape.org/namespaces/inkscape"
   width="718.54846"
   height="143.12199"
   viewBox="0 0 718.54846 143.122"
   version="1.1"
   id="svg73"
   sodipodi:docname="theWhiteFoxLogo04.svg"
   inkscape:version="0.92.3 (2405546, 2018-03-11)">
  <metadata
     id="metadata77">
    <rdf:RDF>
      <cc:Work
         rdf:about="">
        <dc:format>image/svg+xml</dc:format>
        <dc:type
           rdf:resource="http://purl.org/dc/dcmitype/StillImage" />
        <dc:title></dc:title>
      </cc:Work>
    </rdf:RDF>
  </metadata>
  <sodipodi:namedview
     pagecolor="#ffffff"
     bordercolor="#666666"
     borderopacity="1"
     objecttolerance="10"
     gridtolerance="10"
     guidetolerance="10"
     inkscape:pageopacity="0"
     inkscape:pageshadow="2"
     inkscape:window-width="1920"
     inkscape:window-height="1017"
     id="namedview75"
     showgrid="false"
     inkscape:zoom="1.9438326"
     inkscape:cx="292.47461"
     inkscape:cy="88.218001"
     inkscape:window-x="-8"
     inkscape:window-y="-8"
     inkscape:window-maximized="1"
     inkscape:current-layer="svg73" />
<?xml-stylesheet type="text/css" href="svg.css" ?>  <defs
     id="defs59">
    <style
       type="text/css"
       id="style57">
      .lines {
        fill: #FFF;
        stroke: #FFF;
        stroke-miterlimit: 10;
      }
      
       @keyframes fadeIn {
        0% {
          opacity: 0;
        }
        50% {
          opacity: 0;
        }
        100% {
          opacity: 1;
        }
      }  
       
      @-moz-keyframes fadeIn {
        0% {
          -moz-opacity: 0.0;
        }
        50% {
          -moz-opacity: 0.0;
        }
        100% {
          -moz-opacity: 1.0;
        }
      }      
      
      #fox01 .lines {
       <!---webkit-animation: fadeIn 4s ease; -->
  
         -moz-animation-name: fadeIn 2s ease-in 1s;
        -moz-animation-fill-mode: forwards;
        -moz-transition: fill .4s ease;
        <!---ms-animation: fadeIn 2s ease;
        -->
<!---o-animation: fadeIn 2s ease;
        -->
 
        animation: fadeIn 2s ease;        
      }
      
      #fox02 .lines {
        <!---webkit-animation: fadeIn 4s ease;
        -->
 -moz-animation-name: fadeIn 4s ease;
        <!---ms-animation: fadeIn 4s ease;
        -o-animation: fadeIn 4s ease;
        -->
 
        animation: fadeIn 4s ease;
      }
      
      #fox03 .lines {
        <!--webkit-animation: fadeIn 6s ease;
        -->
 -moz-animation-name: fadeIn 6s ease;
        <!---ms-animation: fadeIn 6s ease;
        -o-animation: fadeIn 6s ease;
        -->
 
        animation: fadeIn 6s ease;
      }
      
      #fox04 .lines {
        <!--webkit-animation-name: fadeIn 8s ease;
        -->
 -moz-animation-name: fadeIn 8s ease;
        <!---ms-animation: fadeIn 8s ease;
        -o-animation: fadeIn 8s ease;
        -->
 
        animation: fadeIn 8s ease;
      }
      
      @-webkit-keyframes fadeIn {
        0% {
          opacity: 0;
        }
        50% {
          -webkit-opacity: 0;
        }
        100% {
          -webkit-opacity: 1;
        }
      }

    </style>
    <clipPath
       clipPathUnits="userSpaceOnUse"
       id="clipPath122">
      <rect
         id="rect124"
         width="909.54333"
         height="156.39207"
         x="0"
         y="22.583929" />
    </clipPath>
    <clipPath
       clipPathUnits="userSpaceOnUse"
       id="clipPath128">
      <rect
         id="rect130"
         width="910.0578"
         height="147.132"
         x="-0.51444757"
         y="32.358433" />
    </clipPath>
  </defs>
  <g
     id="g114"
     clip-path="url(#clipPath128)"
     transform="translate(-107.17621,-34.584)">
    <g
       transform="translate(0,-4)"
       id="fox01">
      <path
         style="fill:#ffffff;stroke:#ffffff;stroke-miterlimit:10"
         inkscape:connector-curvature="0"
         id="path61"
         d="m 191.083,174.417 -2.5,-5 -3.333,-6.333 -6.833,-7.834 -2.667,-6.833 -5.075,0.208 -1.092,30.125 -5.333,-0.25 V 165 l -0.333,-6.083 -2,-6.5 -3.917,3.25 -2.417,2.5 -3.917,4.75 -2.083,3.5 1.685,2.48 7.815,6.187 1.167,4.333 h -4.583 l -4.167,-3.083 -4.417,-2.584 -4.333,-3.333 -1,-2.084 0.5,-3.083 3.083,-5.167 5.567,-8.514 -2.233,1.68 -3.667,4.583 -4.333,4.917 c 0,0 -2.71,2.123 -2.917,3.624 -0.207,1.501 1.917,4.043 1.917,4.043 l 10.875,10.79 h -9 l -4.167,-4.166 -3.958,-4.373 -1.667,-3.667 -0.083,-2.25 v -4.333 L 131,166.25 v 2.958 l -0.167,1.793 0.083,4.833 -3.333,2.417 -6.667,1.167 -6.333,-1.167 -4,-2.666 c 0,0 -2.667,-2.834 -2.833,-3.5 -0.166,-0.666 0,-5.334 0,-5.334 1.17,-2.534 2.394,-5.015 3.73,-7.465 1.06,-1.943 1.8,-4.357 1.933,-6.578 0.117,-1.966 -0.216,-3.938 0.015,-5.932 0.59,-5.094 3.968,-9.445 7.15,-13.255 2.232,-2.676 3.165,-6.09 5.46,-8.717 3.093,-3.538 6.743,-7.406 10.8,-9.845 2.252,-1.353 4.108,-3.346 6.663,-3.875 5.723,-1.185 11.114,-2.442 16.834,-3.635 3.81,-0.794 8.02,-0.16 11.833,0.28 3.42,0.394 3.99,0.067 7.286,0.677 0.78,0.256 3.27,-0.24 2.88,-0.24 7.086,-0.313 10.956,0.102 16.968,0.595 2.504,0.204 4.962,0.612 7.384,1.282 0.85,0.234 2.233,1.04 3.1,1.04 h 2.132 l 4.333,0.834 3.666,1.333 3.542,1.707 c 0,0 3.605,1.303 7.292,2.126 2.257,0.504 3.156,1.06 2.875,1.332 -0.236,0.23 -0.875,0.334 -0.875,0.334 l -1.528,0.127 -2.472,0.872 -3.833,1.833 -1.25,1 -0.917,1.5 c 0,0 0.375,3 0,4.666 -0.176,0.78 -2.833,3.333 -2.833,3.333 l -1.335,2.92 0.292,4.25 0.208,5.167 v 1.5 l -1.333,0.833 -3.333,-0.333 -1.833,-1.333 -1,-1 -2,-2.167 -2.167,-1.833 -1.333,-2 h -2 l -2.167,1.5 c 0,0 -2,0.833 -7,2.5 -5,1.667 -7.583,4.124 -7.583,4.124 l 0.75,5.207 c 0,0 0,3.002 3.333,8.835 3.333,5.833 5.333,13.667 5.333,13.667 z"
         class="lines" />
    </g>
    <g
       id="fox02">
      <path
         id="path64"
         d="m 379.556,55.282 c -0.232,0.406 -0.463,0.815 -0.693,1.228 -1.82,3.262 -3.63,6.612 -5.783,9.67 -1.768,2.51 -3.27,5.047 -4.747,7.737 l -3,5.167 -4.333,5.333 c 0,0 -3.166,3.833 -3.833,4.5 -0.667,0.667 -1.667,2 -2,2.667 C 354.834,92.251 353,94.25 353,94.25 l -9.833,-9.5 -5.5,-5.167 -7,-4.833 -9.667,-5.667 -2.5,-1.5 1.333,2.667 -3.833,-0.833 -4.167,-3.167 -5,0.667 1.167,1.166 -6.5,1 -5,2.5 -4.5,4 -1.167,3 v 3.167 l -3.333,3.667 4.168,-0.5 4.166,-0.5 -2.5,1.333 h 2.5 l 3,1.333 2.667,0.333 2,1 2.5,0.833 4.668,0.166 3.5,2.5 7,5.333 5,5.5 5.667,3.833 h 9.667 l 4.333,-3.167 -1.333,3.167 -3,5.666 -0.333,6 1,6 -0.168,5 -0.167,6 -0.667,3.166 c 0,0 -0.667,2.5 -0.833,3.167 -0.166,0.667 -0.167,2.5 -0.167,2.5 l -0.168,1.334 -2,3.5 -1.167,1.667 -1.5,2.666 1.667,14.5 4,6.334 h 8.666 l 1.708,-0.96 3.25,-0.124 -4.25,-3.625 -3.563,-1.188 -0.187,-12.813 2.5,-7.625 5.375,-7.25 3.333,-5.917 3.668,-5.5 4.167,-6.167 10.833,-13.292 4.67,-7.34 c 1.764,0.786 2.07,1.11 3.127,-0.725 0.94,-1.636 1.984,-3.227 3.1,-4.747 2.257,-3.07 4.946,-5.756 8.196,-7.776 2.403,-1.493 4.066,-2.75 5.223,-5.418 0.813,-1.88 1.956,-3.686 3.017,-5.434 0.637,-1.05 1.224,-2.203 2.297,-2.877 2.446,-1.54 4.035,-0.565 5.538,1.438 l 1,2.333 2.458,3.543 2.708,3.792 5.827,5.717 3.465,-0.76 v -2.5 l -1.325,-1.812 1.034,-0.813 c 0,-0.74 0.262,-2.013 -0.055,-2.676 -0.593,-1.24 -2.433,-1.752 -3.073,-3.136 -0.588,-1.27 -0.74,-2.848 -1.145,-4.2 -0.368,-1.233 -0.614,-2.954 -1.425,-3.934 -0.9,-1.09 -2.62,-2.083 -3.802,-2.884 -1.335,-0.905 -2.782,-1.67 -4.166,-2.5 1.724,-3.993 9.977,-2.107 11.59,0.994 0.564,1.087 0.556,2.194 1.473,3.125 0.874,0.888 2.143,1.383 3.293,1.8 1.242,0.448 2.65,0.61 3.81,1.244 -0.383,-0.21 -0.31,-6.158 -0.4,-6.947 -0.206,-1.746 -0.495,-3.48 -0.765,-5.218 l 1.167,-2.667 3.333,-4 V 51.58 l 2,-4.332 h 8.5 l -9,-4.167 c 0,0 -6.826,-2.496 -6.833,-2.5 -2,-0.73 -4.594,-0.863 -6.694,-1.163 -3.066,-0.438 -6.156,-0.654 -9.252,-0.657 -2.857,-0.002 -5.724,0.06 -8.58,0.01 -2.66,-0.047 -4.902,-0.295 -7.394,0.852 -3.663,1.687 -7.37,3.04 -10.774,5.243 -1.246,0.807 -3.126,1.52 -4.18,2.555 -1.097,1.078 -1.844,3.025 -2.712,4.308 -0.787,1.167 -1.498,2.347 -2.19,3.554 z"
         class="lines"
         inkscape:connector-curvature="0"
         style="fill:#ffffff;stroke:#ffffff;stroke-miterlimit:10" />
    </g>
    <g
       id="fox03">
      <path
         id="path67"
         d="m 618,38.417 c -11.166,-3.333 -18,-3.333 -18,-3.333 l -8.832,1.667 -9.168,1.669 -5.5,2.667 -5.332,3.667 c 0,0 -4.167,3.333 -4.667,4 -0.5,0.667 -2.166,2.833 -2.166,2.833 l -2.833,3.667 -4.332,2.667 c 0,0 -5.333,3.165 -6.5,3.832 -1.167,0.667 -13.5,10.667 -13.5,10.667 l -18.5,13.5 -3.834,5.832 v 5 l 1,2.737 -0.333,1.93 4.168,-1.93 -0.167,1.096 v 3.833 l 2.668,-1.168 1.833,-1 c 0,0 1.334,-0.166 1.334,0.667 v 2.832 c 0,0 1.667,0.333 2.167,0 0.5,-0.333 3.834,0.148 3.834,0.148 l 3,-2.314 5.334,-4.096 10,-5.738 7,-7 6.5,-3.833 3.25,1.166 v 2.667 l -2.917,1.833 2.168,0.333 -2.167,2.332 h 2 l 0.918,0.5 v 4.5 l -1.084,4.5 -3.5,4.167 c 0,0 0.334,5.166 0.834,5.666 0.5,0.5 2.667,3.5 3,4 0.333,0.5 3.166,5.833 3.166,5.833 0,0 0.5,6.5 0.667,7 0.167,0.5 5.168,4 5.168,4 h 2.833 v -4.668 l -0.166,-1.166 5.5,3.333 0.167,-3.168 -0.832,-6.166 -6,-10.834 -0.834,-5 14.5,-16.167 3.167,-10 v -7 l 2.668,-0.667 4.166,0.5 11.834,7.833 8,7 1.833,10.334 2.834,3.905 3.5,2.428 4.167,0.833 1.334,-2.332 1.834,1.333 3,0.5 1.666,-0.665 1,1.5 3.167,0.5 0.668,-5.334 3.833,-5.832 6,-4.333 1.334,-3.167 4.334,1.667 0.833,-3.333 h 6.834 l -7.666,-8.167 -1,-1.167 -5.5,-3 -5,-11.833 -7.834,-10 -11,-6.833 -8,-3.833 H 618 Z"
         class="lines"
         inkscape:connector-curvature="0"
         style="fill:#ffffff;stroke:#ffffff;stroke-miterlimit:10" />
    </g>
    <g
       transform="translate(0,4)"
       id="fox04">
      <path
         style="fill:#ffffff;stroke:#ffffff;stroke-miterlimit:10"
         inkscape:connector-curvature="0"
         id="path70"
         d="m 753.667,172.583 17.666,-2.333 15,-5 1.667,-4.667 c 0,0 -1.333,-15.334 0,-17 1.333,-1.666 0,-13.666 0,-13.666 l 4.667,-7.334 4.666,-11.333 4,-7.333 9,-3 h 9.334 l 5.333,-1.43 -3.333,-6.57 -4.667,-4.335 -3.333,-2 h -14.334 l -10,4 -4.666,4.667 -4.334,0.333 -4.333,-7 v -2 l -4,-4.667 h -4 l -0.333,3 9.666,19.333 -6,7.666 -5.333,-2.664 3.667,-9.762 1,-2.905 -6.667,-11 -2.333,-6.333 -5.667,-2 v 6 l 9.333,15 -14.333,18.667 11.667,19.333"
         class="lines" />
    </g>
  </g>
</svg>
