<svg version="1.1" xmlns="http://www.w3.org/2000/svg" xmlns:xlink="http://www.w3.org/1999/xlink" x="0px" y="0px" width="908px"
	 height="198.976" viewBox="0 0 908 198.976" enable-background="new 0 0 908 198.976" xml:space="preserve">
<g id="Blackground">
	<rect fill="#E24C38" width="908" height="198.976"/>
</g>
<?xml-stylesheet type="text/css" href="svg.css" ?>
  <defs>
    <style type="text/css">
      .lines {
        fill: #FFF;
        stroke: #FFF;
        stroke-miterlimit: 10;
      }
      
       @keyframes fadeIn {
        0% {
          opacity: 0;
        }
        50% {
          opacity: 0;
        }
        100% {
          opacity: 1;
        }
      }  
       
      @-moz-keyframes fadeIn {
        0% {
          -moz-opacity: 0.0;
        }
        50% {
          -moz-opacity: 0.0;
        }
        100% {
          -moz-opacity: 1.0;
        }
      }      
      
      #fox01 .lines {
        <!--webkit-animation: fadeIn 2s ease-in 0s 1 normal forwards;
        --> -moz-animation-name: fadeIn 2s ease-in 1s;
        -moz-animation-fill-mode: forwards;
        -moz-transition: fill .4s ease;
        <!---ms-animation: fadeIn 2s ease;
        --> <!---o-animation: fadeIn 2s ease;
        --> 
        animation: fadeIn 2s ease;        
      }
      
      #fox02 .lines {
        <!---webkit-animation: fadeIn 4s ease;
        --> -moz-animation-name: fadeIn 4s ease;
        <!---ms-animation: fadeIn 4s ease;
        -o-animation: fadeIn 4s ease;
        --> 
        animation: fadeIn 4s ease;
      }
      
      #fox03 .lines {
        <!--webkit-animation: fadeIn 6s ease;
        --> -moz-animation-name: fadeIn 6s ease;
        <!---ms-animation: fadeIn 6s ease;
        -o-animation: fadeIn 6s ease;
        --> 
        animation: fadeIn 6s ease;
      }
      
      #fox04 .lines {
        <!--webkit-animation-name: fadeIn 8s ease;
        --> -moz-animation-name: fadeIn 8s ease;
        <!---ms-animation: fadeIn 8s ease;
        -o-animation: fadeIn 8s ease;
        --> 
        animation: fadeIn 8s ease;
      }
      
      @-webkit-keyframes fadeIn {
        0% {
          opacity: 0;
        }
        50% {
          -webkit-opacity: 0;
        }
        100% {
          -webkit-opacity: 1;
        }
      }

    </style>
  </defs>
  <g id="fox01">
    <path class="lines" d="M191.083 174.417l-2.5-5-3.333-6.333-6.833-7.834-2.667-6.833-5.075.208-1.092 30.125-5.333-.25V165l-.333-6.083-2-6.5-3.917 3.25-2.417 2.5-3.917 4.75-2.083 3.5 1.685 2.48 7.815 6.187 1.167 4.333h-4.583l-4.167-3.083-4.417-2.584-4.333-3.333-1-2.084.5-3.083 3.083-5.167 5.567-8.514-2.233 1.68-3.667 4.583-4.333 4.917s-2.71 2.123-2.917 3.624 1.917 4.043 1.917 4.043l10.875 10.79h-9l-4.167-4.166-3.958-4.373L131.75 169l-.083-2.25v-4.333L131 166.25v2.958l-.167 1.793.083 4.833-3.333 2.417-6.667 1.167-6.333-1.167-4-2.666s-2.667-2.834-2.833-3.5 0-5.334 0-5.334c1.17-2.534 2.394-5.015 3.73-7.465 1.06-1.943 1.8-4.357 1.933-6.578.117-1.966-.216-3.938.015-5.932.59-5.094 3.968-9.445 7.15-13.255 2.232-2.676 3.165-6.09 5.46-8.717 3.093-3.538 6.743-7.406 10.8-9.845 2.252-1.353 4.108-3.346 6.663-3.875 5.723-1.185 11.114-2.442 16.834-3.635 3.81-.794 8.02-.16 11.833.28 3.42.394 3.99.067 7.286.677.78.256 3.27-.24 2.88-.24 7.086-.313 10.956.102 16.968.595 2.504.204 4.962.612 7.384 1.282.85.234 2.233 1.04 3.1 1.04h2.132l4.333.834 3.666 1.333 3.542 1.707s3.605 1.303 7.292 2.126c2.257.504 3.156 1.06 2.875 1.332-.236.23-.875.334-.875.334l-1.528.127-2.472.872-3.833 1.833-1.25 1-.917 1.5s.375 3 0 4.666c-.176.78-2.833 3.333-2.833 3.333L218.583 135l.292 4.25.208 5.167v1.5l-1.333.833-3.333-.333-1.833-1.333-1-1-2-2.167-2.167-1.833-1.333-2h-2l-2.167 1.5s-2 .833-7 2.5-7.583 4.124-7.583 4.124l.75 5.207s0 3.002 3.333 8.835 5.333 13.667 5.333 13.667l-5.667.5z"
    />
  </g>
  <g id="fox02">
    <path class="lines" d="M379.556 55.282c-.232.406-.463.815-.693 1.228-1.82 3.262-3.63 6.612-5.783 9.67-1.768 2.51-3.27 5.047-4.747 7.737l-3 5.167L361 84.417s-3.166 3.833-3.833 4.5-1.667 2-2 2.667S353 94.25 353 94.25l-9.833-9.5-5.5-5.167-7-4.833L321 69.083l-2.5-1.5 1.333 2.667-3.833-.833-4.167-3.167-5 .667L308 68.083l-6.5 1-5 2.5-4.5 4-1.167 3v3.167l-3.333 3.667 4.168-.5 4.166-.5-2.5 1.333h2.5l3 1.333 2.667.333 2 1 2.5.833 4.668.166 3.5 2.5 7 5.333 5 5.5 5.667 3.833h9.667l4.333-3.167-1.333 3.167-3 5.666-.333 6 1 6-.168 5-.167 6-.667 3.166s-.667 2.5-.833 3.167-.167 2.5-.167 2.5l-.168 1.334-2 3.5-1.167 1.667-1.5 2.666 1.667 14.5 4 6.334h8.666l1.708-.96 3.25-.124-4.25-3.625-3.563-1.188-.187-12.813 2.5-7.625 5.375-7.25 3.333-5.917 3.668-5.5 4.167-6.167 10.833-13.292 4.67-7.34c1.764.786 2.07 1.11 3.127-.725.94-1.636 1.984-3.227 3.1-4.747 2.257-3.07 4.946-5.756 8.196-7.776 2.403-1.493 4.066-2.75 5.223-5.418.813-1.88 1.956-3.686 3.017-5.434.637-1.05 1.224-2.203 2.297-2.877 2.446-1.54 4.035-.565 5.538 1.438l1 2.333 2.458 3.543 2.708 3.792 5.827 5.717 3.465-.76v-2.5l-1.325-1.812 1.034-.813c0-.74.262-2.013-.055-2.676-.593-1.24-2.433-1.752-3.073-3.136-.588-1.27-.74-2.848-1.145-4.2-.368-1.233-.614-2.954-1.425-3.934-.9-1.09-2.62-2.083-3.802-2.884-1.335-.905-2.782-1.67-4.166-2.5 1.724-3.993 9.977-2.107 11.59.994.564 1.087.556 2.194 1.473 3.125.874.888 2.143 1.383 3.293 1.8 1.242.448 2.65.61 3.81 1.244-.383-.21-.31-6.158-.4-6.947-.206-1.746-.495-3.48-.765-5.218l1.167-2.667 3.333-4V51.58l2-4.332h8.5l-9-4.167s-6.826-2.496-6.833-2.5c-2-.73-4.594-.863-6.694-1.163-3.066-.438-6.156-.654-9.252-.657-2.857-.002-5.724.06-8.58.01-2.66-.047-4.902-.295-7.394.852-3.663 1.687-7.37 3.04-10.774 5.243-1.246.807-3.126 1.52-4.18 2.555-1.097 1.078-1.844 3.025-2.712 4.308-.787 1.167-1.498 2.347-2.19 3.554z"
    />
  </g>
  <g id="fox03">
    <path class="lines" d="M618 38.417c-11.166-3.333-18-3.333-18-3.333l-8.832 1.667L582 38.42l-5.5 2.667-5.332 3.667s-4.167 3.333-4.667 4-2.166 2.833-2.166 2.833l-2.833 3.667-4.332 2.667s-5.333 3.165-6.5 3.832-13.5 10.667-13.5 10.667l-18.5 13.5-3.834 5.832v5l1 2.737-.333 1.93 4.168-1.93-.167 1.096v3.833l2.668-1.168 1.833-1s1.334-.166 1.334.667v2.832s1.667.333 2.167 0 3.834.148 3.834.148l3-2.314 5.334-4.096 10-5.738 7-7 6.5-3.833 3.25 1.166v2.667l-2.917 1.833 2.168.333-2.167 2.332h2l.918.5v4.5l-1.084 4.5-3.5 4.167s.334 5.166.834 5.666 2.667 3.5 3 4 3.166 5.833 3.166 5.833.5 6.5.667 7 5.168 4 5.168 4h2.833v-4.668l-.166-1.166 5.5 3.333.167-3.168-.832-6.166-6-10.834-.834-5 14.5-16.167 3.167-10v-7l2.668-.667 4.166.5 11.834 7.833 8 7 1.833 10.334 2.834 3.905 3.5 2.428 4.167.833 1.334-2.332 1.834 1.333 3 .5 1.666-.665 1 1.5 3.167.5.668-5.334 3.833-5.832 6-4.333 1.334-3.167 4.334 1.667.833-3.333h6.834l-7.666-8.167-1-1.167-5.5-3-5-11.833-7.834-10-11-6.833-8-3.833H618z"
    />
  </g>
  <g id="fox04">
    <path class="lines" d="M753.667 172.583l17.666-2.333 15-5 1.667-4.667s-1.333-15.334 0-17 0-13.666 0-13.666l4.667-7.334 4.666-11.333 4-7.333 9-3h9.334l5.333-1.43-3.333-6.57L817 88.582l-3.333-2h-14.334l-10 4-4.666 4.667-4.334.333-4.333-7v-2l-4-4.667h-4l-.333 3 9.666 19.333-6 7.666L766 109.25l3.667-9.762 1-2.905-6.667-11-2.333-6.333-5.667-2v6l9.333 15L751 116.917l11.667 19.333"
    />
  </g>
</svg>