<?xml version="1.0" encoding="UTF-8" standalone="no"?>
<!DOCTYPE svg PUBLIC "-//W3C//DTD SVG 1.1//EN" "http://www.w3.org/Graphics/SVG/1.1/DTD/svg11.dtd">
<svg version="1.1" xmlns="http://www.w3.org/2000/svg" xmlns:xlink="http://www.w3.org/1999/xlink"
    preserveAspectRatio="xMidYMid meet"
    viewBox="344.5639097744361 330.27819548872174 111.73684210526318 91.21804511278197" width="53.87" height="43.61">
    <g id="fox03" transform="matrix(1, 0, 0, 1, -345.722534, 91.162292)">
        <path className="lines"
            d="M618 38.417c-11.166-3.333-18-3.333-18-3.333l-8.832 1.667L582 38.42l-5.5 2.667-5.332 3.667s-4.167 3.333-4.667 4-2.166 2.833-2.166 2.833l-2.833 3.667-4.332 2.667s-5.333 3.165-6.5 3.832-13.5 10.667-13.5 10.667l-18.5 13.5-3.834 5.832v5l1 2.737-.333 1.93 4.168-1.93-.167 1.096v3.833l2.668-1.168 1.833-1s1.334-.166 1.334.667v2.832s1.667.333 2.167 0 3.834.148 3.834.148l3-2.314 5.334-4.096 10-5.738 7-7 6.5-3.833 3.25 1.166v2.667l-2.917 1.833 2.168.333-2.167 2.332h2l.918.5v4.5l-1.084 4.5-3.5 4.167s.334 5.166.834 5.666 2.667 3.5 3 4 3.166 5.833 3.166 5.833.5 6.5.667 7 5.168 4 5.168 4h2.833v-4.668l-.166-1.166 5.5 3.333.167-3.168-.832-6.166-6-10.834-.834-5 14.5-16.167 3.167-10v-7l2.668-.667 4.166.5 11.834 7.833 8 7 1.833 10.334 2.834 3.905 3.5 2.428 4.167.833 1.334-2.332 1.834 1.333 3 .5 1.666-.665 1 1.5 3.167.5.668-5.334 3.833-5.832 6-4.333 1.334-3.167 4.334 1.667.833-3.333h6.834l-7.666-8.167-1-1.167-5.5-3-5-11.833-7.834-10-11-6.833-8-3.833H618z" />
    </g>
</svg>
